<svg width="40" height="40" viewBox="0 0 40 40" fill="none" xmlns="http://www.w3.org/2000/svg">
<rect width="40" height="40" rx="12" fill="#F3EEEE"/>
<rect x="0.5" y="0.5" width="39" height="39" rx="11.5" stroke="black" stroke-opacity="0.15"/>
<g clip-path="url(#clip0_110_5)">
<path d="M27.25 13.7607C27.1509 13.6614 27.0331 13.5826 26.9035 13.5288C26.7739 13.4751 26.635 13.4474 26.4946 13.4474C26.3543 13.4474 26.2154 13.4751 26.0858 13.5288C25.9561 13.5826 25.8384 13.6614 25.7393 13.7607L20.5 18.9893L15.2607 13.75C15.1615 13.6508 15.0438 13.5721 14.9142 13.5184C14.7845 13.4647 14.6456 13.4371 14.5054 13.4371C14.3651 13.4371 14.2262 13.4647 14.0966 13.5184C13.967 13.5721 13.8492 13.6508 13.75 13.75C13.6508 13.8492 13.5721 13.967 13.5184 14.0966C13.4647 14.2262 13.4371 14.3651 13.4371 14.5054C13.4371 14.6456 13.4647 14.7845 13.5184 14.9142C13.5721 15.0438 13.6508 15.1615 13.75 15.2607L18.9893 20.5L13.75 25.7393C13.6508 25.8385 13.5721 25.9562 13.5184 26.0858C13.4647 26.2154 13.4371 26.3544 13.4371 26.4946C13.4371 26.6349 13.4647 26.7738 13.5184 26.9034C13.5721 27.033 13.6508 27.1508 13.75 27.25C13.8492 27.3492 13.967 27.4279 14.0966 27.4816C14.2262 27.5352 14.3651 27.5629 14.5054 27.5629C14.6456 27.5629 14.7845 27.5352 14.9142 27.4816C15.0438 27.4279 15.1615 27.3492 15.2607 27.25L20.5 22.0107L25.7393 27.25C25.8385 27.3492 25.9562 27.4279 26.0858 27.4816C26.2154 27.5352 26.3544 27.5629 26.4946 27.5629C26.6349 27.5629 26.7738 27.5352 26.9034 27.4816C27.033 27.4279 27.1508 27.3492 27.25 27.25C27.3492 27.1508 27.4279 27.033 27.4816 26.9034C27.5352 26.7738 27.5629 26.6349 27.5629 26.4946C27.5629 26.3544 27.5352 26.2154 27.4816 26.0858C27.4279 25.9562 27.3492 25.8385 27.25 25.7393L22.0107 20.5L27.25 15.2607C27.6571 14.8536 27.6571 14.1679 27.25 13.7607Z" fill="#FA7C05"/>
</g>
<defs>
<clipPath id="clip0_110_5">
<rect width="15" height="15" fill="white" transform="translate(13 13)"/>
</clipPath>
</defs>
</svg>
