<svg width="40" height="40" viewBox="0 0 40 40" fill="none" xmlns="http://www.w3.org/2000/svg">
<rect width="40" height="40" rx="12" fill="white"/>
<rect x="0.5" y="0.5" width="39" height="39" rx="11.5" stroke="black" stroke-opacity="0.15"/>
<path d="M14.125 11C13.5614 11 13.0209 11.2239 12.6224 11.6224C12.2239 12.0209 12 12.5614 12 13.125V25.875C12 26.4386 12.2239 26.9791 12.6224 27.3776C13.0209 27.7761 13.5614 28 14.125 28H26.875C27.4386 28 27.9791 27.7761 28.3776 27.3776C28.7761 26.9791 29 26.4386 29 25.875V13.125C29 12.5614 28.7761 12.0209 28.3776 11.6224C27.9791 11.2239 27.4386 11 26.875 11H14.125ZM21.0312 15.7812V18.9688H24.2188C24.3596 18.9688 24.4948 19.0247 24.5944 19.1243C24.694 19.224 24.75 19.3591 24.75 19.5C24.75 19.6409 24.694 19.776 24.5944 19.8757C24.4948 19.9753 24.3596 20.0312 24.2188 20.0312H21.0312V23.2188C21.0312 23.3596 20.9753 23.4948 20.8757 23.5944C20.776 23.694 20.6409 23.75 20.5 23.75C20.3591 23.75 20.224 23.694 20.1243 23.5944C20.0247 23.4948 19.9688 23.3596 19.9688 23.2188V20.0312H16.7812C16.6404 20.0312 16.5052 19.9753 16.4056 19.8757C16.306 19.776 16.25 19.6409 16.25 19.5C16.25 19.3591 16.306 19.224 16.4056 19.1243C16.5052 19.0247 16.6404 18.9688 16.7812 18.9688H19.9688V15.7812C19.9688 15.6404 20.0247 15.5052 20.1243 15.4056C20.224 15.306 20.3591 15.25 20.5 15.25C20.6409 15.25 20.776 15.306 20.8757 15.4056C20.9753 15.5052 21.0312 15.6404 21.0312 15.7812Z" fill="#FA7C05"/>
</svg>
