<svg width="40" height="40" viewBox="0 0 40 40" fill="none" xmlns="http://www.w3.org/2000/svg">
<rect width="40" height="40" rx="12" fill="#F3EEEE"/>
<rect x="0.5" y="0.5" width="39" height="39" rx="11.5" stroke="black" stroke-opacity="0.15"/>
<path d="M12 17.2005C11.9999 16.6424 12.1142 16.0898 12.3363 15.5751C12.5584 15.0605 12.8838 14.594 13.2935 14.203C13.7031 13.8119 14.1888 13.5042 14.7222 13.2978C15.2556 13.0914 15.826 12.9904 16.4 13.0007C17.0792 12.9972 17.7514 13.1341 18.372 13.4022C18.9926 13.6704 19.5476 14.0637 20 14.5562C20.4524 14.0637 21.0074 13.6704 21.628 13.4022C22.2486 13.1341 22.9208 12.9972 23.6 13.0007C24.174 12.9904 24.7444 13.0914 25.2778 13.2978C25.8112 13.5042 26.2969 13.8119 26.7065 14.203C27.1162 14.594 27.4416 15.0605 27.6637 15.5751C27.8858 16.0898 28.0001 16.6424 28 17.2005C28 21.3661 22.8968 24.5112 20 27C17.1096 24.4902 12 21.3692 12 17.2005Z" fill="#25396F"/>
</svg>
