<svg width="22" height="20" viewBox="0 0 22 20" fill="none" xmlns="http://www.w3.org/2000/svg">
<g clip-path="url(#clip0_14_148)">
<path d="M8.73453e-08 6.00103C-0.00013528 5.20366 0.157075 4.41426 0.462443 3.67897C0.767811 2.94368 1.21521 2.27724 1.77849 1.71862C2.34178 1.15999 3.00965 0.720372 3.74306 0.425462C4.47648 0.130552 5.26074 -0.0137371 6.05 0.00102897C6.98386 -0.00398047 7.90811 0.191551 8.76149 0.574663C9.61487 0.957775 10.3779 1.51972 11 2.22325C11.6221 1.51972 12.3851 0.957775 13.2385 0.574663C14.0919 0.191551 15.0161 -0.00398047 15.95 0.00102897C16.7393 -0.0137371 17.5235 0.130552 18.2569 0.425462C18.9904 0.720372 19.6582 1.15999 20.2215 1.71862C20.7848 2.27724 21.2322 2.94368 21.5376 3.67897C21.8429 4.41426 22.0001 5.20366 22 6.00103C22 11.9521 14.9831 16.4455 11 20.001C7.0257 16.4155 8.73453e-08 11.9566 8.73453e-08 6.00103Z" fill="#25396F"/>
</g>
<defs>
<clipPath id="clip0_14_148">
<rect width="22" height="20" fill="white"/>
</clipPath>
</defs>
</svg>
