<svg width="20" height="21" viewBox="0 0 20 21" fill="none" xmlns="http://www.w3.org/2000/svg">
<g clip-path="url(#clip0_14_182)">
<path d="M2.5 21.4167C1.8125 21.4167 1.22375 21.188 0.733752 20.7307C0.243752 20.2733 -0.000831211 19.7242 2.12224e-06 19.0833V8.58333C2.12224e-06 8.21389 0.0887519 7.86389 0.266252 7.53333C0.443752 7.20278 0.688336 6.93056 1 6.71667L8.5 1.46667C8.72917 1.31111 8.96875 1.19444 9.21875 1.11667C9.46875 1.03889 9.72917 1 10 1C10.2708 1 10.5313 1.03889 10.7813 1.11667C11.0313 1.19444 11.2708 1.31111 11.5 1.46667L19 6.71667C19.3125 6.93056 19.5575 7.20278 19.735 7.53333C19.9125 7.86389 20.0008 8.21389 20 8.58333V19.0833C20 19.725 19.755 20.2745 19.265 20.7318C18.775 21.1892 18.1867 21.4174 17.5 21.4167H12.5V13.25H7.5V21.4167H2.5Z" fill="#25396F"/>
</g>
<defs>
<clipPath id="clip0_14_182">
<rect width="20" height="21" fill="white"/>
</clipPath>
</defs>
</svg>
