<svg width="132" height="122" viewBox="0 0 132 122" fill="none" xmlns="http://www.w3.org/2000/svg">
<rect width="132" height="122" rx="17" fill="#767676" fill-opacity="0.5"/>
<path d="M59.75 54.3125V67.6875C59.75 68.6875 60.1875 69.4167 61.0625 69.875C61.9375 70.3333 62.7917 70.2917 63.625 69.75L74 63.125C74.7917 62.6667 75.1875 61.9583 75.1875 61C75.1875 60.0417 74.7917 59.3333 74 58.875L63.625 52.25C62.7917 51.7083 61.9375 51.6667 61.0625 52.125C60.1875 52.5833 59.75 53.3125 59.75 54.3125ZM66 86C62.5417 86 59.2917 85.3433 56.25 84.03C53.2083 82.7167 50.5625 80.9358 48.3125 78.6875C46.0625 76.4375 44.2817 73.7917 42.97 70.75C41.6583 67.7083 41.0017 64.4583 41 61C41 57.5417 41.6567 54.2917 42.97 51.25C44.2833 48.2083 46.0642 45.5625 48.3125 43.3125C50.5625 41.0625 53.2083 39.2817 56.25 37.97C59.2917 36.6583 62.5417 36.0017 66 36C69.4583 36 72.7083 36.6567 75.75 37.97C78.7917 39.2833 81.4375 41.0642 83.6875 43.3125C85.9375 45.5625 87.7192 48.2083 89.0325 51.25C90.3458 54.2917 91.0017 57.5417 91 61C91 64.4583 90.3433 67.7083 89.03 70.75C87.7167 73.7917 85.9358 76.4375 83.6875 78.6875C81.4375 80.9375 78.7917 82.7192 75.75 84.0325C72.7083 85.3458 69.4583 86.0017 66 86ZM66 81C71.5417 81 76.2608 79.0525 80.1575 75.1575C84.0542 71.2625 86.0017 66.5433 86 61C86 55.4583 84.0525 50.7392 80.1575 46.8425C76.2625 42.9458 71.5433 40.9983 66 41C60.4583 41 55.7392 42.9475 51.8425 46.8425C47.9458 50.7375 45.9983 55.4567 46 61C46 66.5417 47.9475 71.2608 51.8425 75.1575C55.7375 79.0542 60.4567 81.0017 66 81Z" fill="#181818"/>
</svg>
