<svg width="23" height="20" viewBox="0 0 23 20" fill="none" xmlns="http://www.w3.org/2000/svg">
<g clip-path="url(#clip0_14_137)">
<path d="M6.26337 10C6.26337 9.76518 6.35532 9.53997 6.51899 9.37392C6.68267 9.20787 6.90466 9.11459 7.13613 9.11459H14.991V3.35938C14.991 1.58855 13.1479 0.260422 11.5 0.260422H3.20868C2.39879 0.261301 1.62232 0.588079 1.04965 1.16906C0.476969 1.75003 0.154858 2.53775 0.153992 3.35938V16.6406C0.154858 17.4623 0.476969 18.25 1.04965 18.831C1.62232 19.4119 2.39879 19.7387 3.20868 19.7396H11.9364C12.7462 19.7387 13.5227 19.4119 14.0954 18.831C14.6681 18.25 14.9902 17.4623 14.991 16.6406V10.8854H7.13613C6.90466 10.8854 6.68267 10.7921 6.51899 10.6261C6.35532 10.46 6.26337 10.2348 6.26337 10ZM22.5901 9.37413L18.2263 4.94704C18.0613 4.788 17.8416 4.70065 17.614 4.70361C17.3864 4.70656 17.1689 4.79959 17.008 4.96287C16.8471 5.12614 16.7554 5.34673 16.7525 5.57762C16.7495 5.8085 16.8356 6.0314 16.9924 6.1988L19.866 9.11459H14.991V10.8854H19.866L16.9924 13.8012C16.908 13.8826 16.8404 13.9803 16.7938 14.0886C16.7471 14.1969 16.7223 14.3136 16.7209 14.4318C16.7194 14.55 16.7412 14.6672 16.7851 14.7767C16.829 14.8862 16.894 14.9856 16.9764 15.0692C17.0588 15.1528 17.1568 15.2188 17.2647 15.2633C17.3726 15.3078 17.4882 15.33 17.6047 15.3285C17.7212 15.3269 17.8362 15.3018 17.943 15.2545C18.0497 15.2072 18.146 15.1386 18.2263 15.053L22.5901 10.6259C22.7537 10.4599 22.8456 10.2347 22.8456 10C22.8456 9.76528 22.7537 9.54016 22.5901 9.37413Z" fill="#25396F"/>
</g>
<defs>
<clipPath id="clip0_14_137">
<rect width="23" height="20" fill="white"/>
</clipPath>
</defs>
</svg>
