<svg width="219" height="80" viewBox="0 0 219 80" fill="none" xmlns="http://www.w3.org/2000/svg">
<path d="M57.2 64.21C56.78 64.21 56.4533 64.0467 56.22 63.72C56.0333 63.3933 55.94 63.0433 55.94 62.67C55.9867 61.8767 56.1733 61.4333 56.5 61.34C56.8733 61.2467 57.2933 61.2 57.76 61.2C59.2533 61.2 60.3033 60.9433 60.91 60.43C61.5167 59.87 61.89 59.1933 62.03 58.4C62.2167 57.56 62.31 56.6967 62.31 55.81V28.02C62.31 27.1333 62.2167 26.2933 62.03 25.5C61.89 24.66 61.5167 23.9833 60.91 23.47C60.3033 22.91 59.2533 22.63 57.76 22.63C57.2933 22.63 56.8733 22.5833 56.5 22.49C56.1733 22.3967 55.9867 21.9533 55.94 21.16C55.94 20.7867 56.0333 20.4367 56.22 20.11C56.4533 19.7833 56.78 19.62 57.2 19.62C58.6933 19.6667 60.1167 19.7133 61.47 19.76C62.8233 19.8067 64.2 19.83 65.6 19.83H76.1C76.9867 19.83 78.13 19.9 79.53 20.04C80.9767 20.18 82.4933 20.46 84.08 20.88C85.7133 21.3 87.2533 21.9767 88.7 22.91C90.1467 23.8433 91.3133 25.08 92.2 26.62C93.1333 28.16 93.6 30.0967 93.6 32.43C93.6 34.6233 93.0867 36.6067 92.06 38.38C91.08 40.1533 89.75 41.67 88.07 42.93C86.4367 44.19 84.57 45.17 82.47 45.87C80.4167 46.5233 78.3167 46.85 76.17 46.85C75.1433 46.85 74.0233 46.78 72.81 46.64C71.5967 46.5 70.3833 46.1967 69.17 45.73V55.81C69.2167 56.6967 69.31 57.56 69.45 58.4C69.59 59.1933 69.9633 59.87 70.57 60.43C71.2233 60.9433 72.2733 61.2 73.72 61.2C74.2333 61.2 74.6533 61.2467 74.98 61.34C75.3067 61.4333 75.4933 61.8767 75.54 62.67C75.54 63.0433 75.4233 63.3933 75.19 63.72C75.0033 64.0467 74.7 64.21 74.28 64.21C71.2933 64.07 68.3767 64 65.53 64C64.13 64 62.7533 64 61.4 64C60.0933 64.0467 58.6933 64.1167 57.2 64.21ZM74.14 43.7C75.2133 43.7 76.4033 43.5367 77.71 43.21C79.0633 42.8367 80.3467 42.2533 81.56 41.46C82.82 40.62 83.8467 39.5 84.64 38.1C85.4333 36.6533 85.83 34.8333 85.83 32.64C85.83 30.26 85.3633 28.3933 84.43 27.04C83.4967 25.64 82.33 24.6133 80.93 23.96C79.5767 23.3067 78.2233 22.8867 76.87 22.7C75.5167 22.5133 74.42 22.42 73.58 22.42C72.46 22.42 71.5733 22.5367 70.92 22.77C70.2667 23.0033 69.8 23.5167 69.52 24.31C69.2867 25.0567 69.17 26.2233 69.17 27.81V42.93C69.6367 43.1167 70.3133 43.3033 71.2 43.49C72.0867 43.63 73.0667 43.7 74.14 43.7ZM98.9676 64.21C98.5476 64.21 98.2442 64.0467 98.0576 63.72C97.8709 63.3933 97.7776 63.0433 97.7776 62.67C97.8242 61.8767 98.0109 61.4333 98.3376 61.34C98.6642 61.2467 99.0609 61.2 99.5276 61.2C101.021 61.2 102.071 60.9433 102.678 60.43C103.284 59.87 103.658 59.1933 103.798 58.4C103.984 57.56 104.078 56.6967 104.078 55.81V28.02C104.078 27.1333 103.984 26.2933 103.798 25.5C103.658 24.66 103.284 23.9833 102.678 23.47C102.071 22.91 101.021 22.63 99.5276 22.63C99.0609 22.63 98.6642 22.5833 98.3376 22.49C98.0109 22.3967 97.8242 21.9533 97.7776 21.16C97.7776 20.7867 97.8709 20.4367 98.0576 20.11C98.2442 19.7833 98.5476 19.62 98.9676 19.62C100.508 19.6667 101.931 19.7133 103.238 19.76C104.544 19.8067 105.898 19.83 107.298 19.83C110.144 19.83 113.061 19.76 116.048 19.62C116.514 19.62 116.841 19.7833 117.028 20.11C117.214 20.4367 117.308 20.7867 117.308 21.16C117.261 21.9533 117.074 22.3967 116.748 22.49C116.421 22.5833 116.024 22.63 115.558 22.63C114.111 22.63 113.061 22.91 112.408 23.47C111.801 23.9833 111.428 24.66 111.288 25.5C111.148 26.2933 111.054 27.1333 111.008 28.02V56.86C111.054 57.4667 111.148 58.12 111.288 58.82C111.428 59.52 111.824 60.1033 112.478 60.57C113.178 61.0367 114.321 61.2467 115.908 61.2H122.208C123.841 61.1533 125.078 60.8967 125.918 60.43C126.804 59.9167 127.504 59.0767 128.018 57.91C128.531 56.7433 129.091 55.1333 129.698 53.08C129.884 52.6133 130.188 52.31 130.608 52.17C131.074 52.03 131.564 52.0067 132.078 52.1C132.451 52.1467 132.824 52.31 133.198 52.59C133.618 52.87 133.804 53.2433 133.758 53.71L132.358 62.53C132.218 63.1833 131.984 63.6033 131.658 63.79C131.378 63.93 130.934 64 130.328 64H107.368C105.968 64 104.591 64 103.238 64C101.931 64.0467 100.508 64.1167 98.9676 64.21ZM135.178 64.21C134.711 64.21 134.384 64.0467 134.198 63.72C134.011 63.3933 133.918 63.0433 133.918 62.67C133.964 61.8767 134.151 61.4333 134.478 61.34C134.804 61.2467 135.201 61.2 135.668 61.2C136.928 61.2 137.884 60.9433 138.538 60.43C139.191 59.9167 139.704 59.24 140.078 58.4C140.498 57.56 140.894 56.6967 141.268 55.81L153.518 26.83C153.984 25.71 154.078 24.87 153.798 24.31C153.518 23.7033 153.051 23.2833 152.398 23.05C151.744 22.77 151.021 22.56 150.228 22.42C149.528 22.28 149.061 22.1633 148.828 22.07C148.594 21.93 148.478 21.51 148.478 20.81C148.478 20.0167 148.758 19.5967 149.318 19.55C149.878 19.4567 150.531 19.41 151.278 19.41C153.191 19.41 154.824 19.5967 156.178 19.97C157.531 20.3433 158.698 21.0667 159.678 22.14C160.658 23.1667 161.568 24.73 162.408 26.83L174.168 55.81C174.494 56.6033 174.844 57.42 175.218 58.26C175.591 59.1 176.081 59.8 176.688 60.36C177.341 60.8733 178.158 61.1533 179.138 61.2C179.651 61.2 180.048 61.2467 180.328 61.34C180.654 61.4333 180.841 61.8767 180.888 62.67C180.888 63.0433 180.771 63.3933 180.538 63.72C180.351 64.0467 180.048 64.21 179.628 64.21C178.134 64.1167 176.828 64.0467 175.708 64C174.588 64 173.328 64 171.928 64C169.174 64 166.281 64.07 163.248 64.21C162.781 64.21 162.454 64.0467 162.268 63.72C162.081 63.3933 161.988 63.0433 161.988 62.67C162.034 61.8767 162.221 61.4333 162.548 61.34C162.874 61.2467 163.271 61.2 163.738 61.2C166.024 61.2 167.261 60.78 167.448 59.94C167.681 59.1 167.471 57.7233 166.818 55.81L164.438 50H147.148C146.448 51.7733 145.934 53.0567 145.608 53.85C145.328 54.6433 145.141 55.1567 145.048 55.39C145.001 55.6233 144.954 55.7633 144.908 55.81C144.394 57.3967 144.114 58.5867 144.068 59.38C144.068 60.1267 144.441 60.6167 145.188 60.85C145.981 61.0833 147.288 61.2 149.108 61.2C149.621 61.2 150.018 61.2467 150.298 61.34C150.624 61.4333 150.811 61.8767 150.858 62.67C150.858 63.0433 150.741 63.3933 150.508 63.72C150.321 64.0467 150.018 64.21 149.598 64.21C148.104 64.1167 146.798 64.0467 145.678 64C144.604 64 143.368 64 141.968 64C141.034 64 140.241 64 139.588 64C138.981 64.0467 138.351 64.07 137.698 64.07C137.044 64.1167 136.204 64.1633 135.178 64.21ZM148.478 46.99H163.178L156.108 29H155.898L148.478 46.99ZM188.116 64.21C187.65 64.21 187.323 64.0467 187.136 63.72C186.95 63.3933 186.856 63.0433 186.856 62.67C186.903 61.8767 187.09 61.4333 187.416 61.34C187.743 61.2467 188.14 61.2 188.606 61.2C190.1 61.2 191.15 60.9433 191.756 60.43C192.363 59.87 192.736 59.1933 192.876 58.4C193.063 57.56 193.156 56.6967 193.156 55.81V47.06C193.156 46.7333 192.9 45.9867 192.386 44.82C191.92 43.6067 191.29 42.2067 190.496 40.62C189.75 39.0333 188.956 37.4 188.116 35.72C187.276 34.04 186.483 32.5233 185.736 31.17C185.036 29.77 184.476 28.6967 184.056 27.95C183.076 26.1767 182.003 24.9167 180.836 24.17C179.67 23.3767 178.34 22.8167 176.846 22.49C176.193 22.35 175.726 22.2333 175.446 22.14C175.213 22.0467 175.096 21.6267 175.096 20.88C175.096 20.0867 175.376 19.6667 175.936 19.62C176.496 19.5267 177.15 19.48 177.896 19.48C181.21 19.48 183.87 19.9933 185.876 21.02C187.93 22.0467 189.75 23.96 191.336 26.76C192.69 29.28 193.903 31.73 194.976 34.11C196.096 36.49 197.333 38.9167 198.686 41.39H198.896L206.666 26.06C207.46 24.4733 207.553 23.5167 206.946 23.19C206.34 22.8167 205.22 22.63 203.586 22.63C203.12 22.63 202.723 22.5833 202.396 22.49C202.07 22.3967 201.883 21.9533 201.836 21.16C201.836 20.7867 201.93 20.4367 202.116 20.11C202.303 19.7833 202.606 19.62 203.026 19.62C204.52 19.6667 205.803 19.7133 206.876 19.76C207.996 19.8067 209.256 19.83 210.656 19.83C212.056 19.83 213.2 19.8067 214.086 19.76C215.02 19.7133 216.233 19.6667 217.726 19.62C218.193 19.62 218.52 19.7833 218.706 20.11C218.893 20.4367 218.986 20.7867 218.986 21.16C218.94 21.9533 218.753 22.3967 218.426 22.49C218.146 22.5833 217.75 22.63 217.236 22.63C215.463 22.63 214.016 23.0267 212.896 23.82C211.776 24.5667 210.773 25.7567 209.886 27.39L201.976 42.3C201.556 43.1867 201.206 43.9333 200.926 44.54C200.646 45.1467 200.436 45.7767 200.296 46.43C200.156 47.0833 200.086 47.9467 200.086 49.02V55.81C200.133 56.6967 200.226 57.56 200.366 58.4C200.506 59.1933 200.88 59.87 201.486 60.43C202.14 60.9433 203.19 61.2 204.636 61.2C205.15 61.2 205.546 61.2467 205.826 61.34C206.153 61.4333 206.34 61.8767 206.386 62.67C206.386 63.0433 206.293 63.3933 206.106 63.72C205.92 64.0467 205.616 64.21 205.196 64.21C203.703 64.1167 202.28 64.0467 200.926 64C199.573 64 198.196 64 196.796 64C194.043 64 191.15 64.07 188.116 64.21Z" fill="white"/>
<path d="M2.5238 41.7392V59.0052C2.5238 64.73 8.91914 68.3458 14.1258 65.5676L22.2095 61.2505M2.5238 31.8261V24.4731C2.5238 18.7483 8.91914 15.1325 14.1258 17.9107L46.4608 35.1792C47.673 35.8122 48.6869 36.7571 49.394 37.9127C50.1011 39.0683 50.4746 40.391 50.4746 41.7392C50.4746 43.0873 50.1011 44.41 49.394 45.5656C48.6869 46.7212 47.673 47.6661 46.4608 48.2991L30.2933 56.9334" stroke="white" stroke-width="4" stroke-linecap="round"/>
</svg>
