<svg width="12" height="12" viewBox="0 0 12 12" fill="none" xmlns="http://www.w3.org/2000/svg">
<g clip-path="url(#clip0_162_29)">
<path d="M3 0H1.5C1.10218 0 0.720645 0.126428 0.43934 0.351472C0.158036 0.576515 0 0.88174 0 1.2V10.8C0 11.1183 0.158036 11.4235 0.43934 11.6485C0.720645 11.8736 1.10218 12 1.5 12H3C3.39782 12 3.77936 11.8736 4.06066 11.6485C4.34196 11.4235 4.5 11.1183 4.5 10.8V1.2C4.5 0.88174 4.34196 0.576515 4.06066 0.351472C3.77936 0.126428 3.39782 0 3 0ZM10.5 0H9C8.60218 0 8.22065 0.126428 7.93934 0.351472C7.65804 0.576515 7.5 0.88174 7.5 1.2V10.8C7.5 11.1183 7.65804 11.4235 7.93934 11.6485C8.22065 11.8736 8.60218 12 9 12H10.5C10.8978 12 11.2794 11.8736 11.5607 11.6485C11.842 11.4235 12 11.1183 12 10.8V1.2C12 0.88174 11.842 0.576515 11.5607 0.351472C11.2794 0.126428 10.8978 0 10.5 0Z" fill="white"/>
</g>
<defs>
<clipPath id="clip0_162_29">
<rect width="12" height="12" fill="white"/>
</clipPath>
</defs>
</svg>
