<svg width="25" height="21" viewBox="0 0 25 21" fill="none" xmlns="http://www.w3.org/2000/svg">
<g clip-path="url(#clip0_14_140)">
<path d="M0 9C0 8.73478 0.0975528 8.48043 0.271198 8.29289C0.444842 8.10536 0.680355 8 0.925926 8H14.8148C15.0604 8 15.2959 8.10536 15.4695 8.29289C15.6432 8.48043 15.7407 8.73478 15.7407 9C15.7407 9.26522 15.6432 9.51957 15.4695 9.70711C15.2959 9.89464 15.0604 10 14.8148 10H0.925926C0.680355 10 0.444842 9.89464 0.271198 9.70711C0.0975528 9.51957 0 9.26522 0 9ZM0.925926 2H21.2963C21.5419 2 21.7774 1.89464 21.951 1.70711C22.1247 1.51957 22.2222 1.26522 22.2222 1C22.2222 0.734784 22.1247 0.48043 21.951 0.292893C21.7774 0.105357 21.5419 0 21.2963 0H0.925926C0.680355 0 0.444842 0.105357 0.271198 0.292893C0.0975528 0.48043 0 0.734784 0 1C0 1.26522 0.0975528 1.51957 0.271198 1.70711C0.444842 1.89464 0.680355 2 0.925926 2ZM24.3403 7.5375L19.7106 6.0375C19.5713 5.99509 19.4248 5.98768 19.2823 6.01585C19.1399 6.04401 19.0053 6.107 18.8889 6.2C18.7745 6.29381 18.6817 6.41473 18.6175 6.55344C18.5533 6.69214 18.5194 6.84493 18.5185 7V13.5375C17.8124 13.0972 16.9914 12.9209 16.1831 13.0358C15.3747 13.1508 14.624 13.5507 14.0475 14.1735C13.471 14.7962 13.1009 15.607 12.9946 16.4801C12.8883 17.3532 13.0517 18.2398 13.4595 19.0023C13.8674 19.7648 14.4968 20.3607 15.2502 20.6975C16.0036 21.0343 16.8388 21.0932 17.6263 20.865C18.4139 20.6368 19.1097 20.1344 19.6058 19.4355C20.1019 18.7367 20.3707 17.8806 20.3704 17V8.35L23.8079 9.4625C24.0442 9.53875 24.299 9.51047 24.516 9.38388C24.7331 9.2573 24.8947 9.04277 24.9653 8.7875C25.0359 8.53223 25.0097 8.25712 24.8925 8.0227C24.7753 7.78828 24.5766 7.61375 24.3403 7.5375ZM9.25926 16H0.925926C0.680355 16 0.444842 16.1054 0.271198 16.2929C0.0975528 16.4804 0 16.7348 0 17C0 17.2652 0.0975528 17.5196 0.271198 17.7071C0.444842 17.8946 0.680355 18 0.925926 18H9.25926C9.50483 18 9.74034 17.8946 9.91399 17.7071C10.0876 17.5196 10.1852 17.2652 10.1852 17C10.1852 16.7348 10.0876 16.4804 9.91399 16.2929C9.74034 16.1054 9.50483 16 9.25926 16Z" fill="#25396F"/>
</g>
<defs>
<clipPath id="clip0_14_140">
<rect width="25" height="21" fill="white"/>
</clipPath>
</defs>
</svg>
