<svg width="40" height="40" viewBox="0 0 40 40" fill="none" xmlns="http://www.w3.org/2000/svg">
<rect width="40" height="40" rx="12" fill="white"/>
<rect x="0.5" y="0.5" width="39" height="39" rx="11.5" stroke="black" stroke-opacity="0.15"/>
<path d="M16.525 26.2226C16.1917 26.4393 15.854 26.4516 15.512 26.2596C15.1707 26.0683 15 25.7726 15 25.3726V15.0226C15 14.6226 15.1707 14.3266 15.512 14.1346C15.854 13.9433 16.1917 13.9559 16.525 14.1726L24.675 19.3476C24.975 19.5476 25.125 19.8309 25.125 20.1976C25.125 20.5643 24.975 20.8476 24.675 21.0476L16.525 26.2226Z" fill="#FA7C05"/>
<path d="M16.257 25.8005L16.257 25.8005L16.2525 25.8034C16.1482 25.8712 16.067 25.8924 16.0035 25.8947C15.9405 25.897 15.8607 25.882 15.7568 25.8236L15.7565 25.8234C15.6526 25.7652 15.5952 25.7035 15.561 25.6444C15.5266 25.5847 15.5 25.5 15.5 25.3726V15.0226C15.5 14.7986 15.5772 14.6717 15.7566 14.5707C15.8602 14.5128 15.9399 14.4979 16.003 14.5002C16.0667 14.5026 16.1481 14.5239 16.2525 14.5918L16.2525 14.5918L16.257 14.5947L24.4017 19.7664C24.5569 19.8712 24.625 19.9964 24.625 20.1976C24.625 20.3987 24.5569 20.524 24.4017 20.6288L16.257 25.8005Z" stroke="black" stroke-opacity="0.15"/>
</svg>
