<svg width="95" height="95" viewBox="0 0 95 95" fill="none" xmlns="http://www.w3.org/2000/svg">
<rect width="95" height="95" rx="15" fill="white" fill-opacity="0.25"/>
<g clip-path="url(#clip0_8_108)">
<path d="M62.5 49.9951H50V62.4951C50 63.1581 49.7366 63.794 49.2678 64.2629C48.7989 64.7317 48.163 64.9951 47.5 64.9951C46.837 64.9951 46.2011 64.7317 45.7322 64.2629C45.2634 63.794 45 63.1581 45 62.4951V49.9951H32.5C31.837 49.9951 31.2011 49.7317 30.7322 49.2629C30.2634 48.794 30 48.1581 30 47.4951C30 46.8321 30.2634 46.1962 30.7322 45.7273C31.2011 45.2585 31.837 44.9951 32.5 44.9951H45V32.4951C45 31.8321 45.2634 31.1962 45.7322 30.7273C46.2011 30.2585 46.837 29.9951 47.5 29.9951C48.163 29.9951 48.7989 30.2585 49.2678 30.7273C49.7366 31.1962 50 31.8321 50 32.4951V44.9951H62.5C63.163 44.9951 63.7989 45.2585 64.2678 45.7273C64.7366 46.1962 65 46.8321 65 47.4951C65 48.1581 64.7366 48.794 64.2678 49.2629C63.7989 49.7317 63.163 49.9951 62.5 49.9951Z" fill="white"/>
</g>
<defs>
<clipPath id="clip0_8_108">
<rect width="35" height="35" fill="white" transform="translate(30 30)"/>
</clipPath>
</defs>
</svg>
